# xmcd
#
# Track frame offsets:
# 150
# 21453
# 43998
# 66878
# 76325
# 98113
# 112065
# 116650
# 135301
# 140243
# 161254
# 162352
# 171765
# 183740
# 211711
#
# Disc length: 3017 seconds
#
#
# Revision: 0
# Processed by: cddbd v1.5.2PL0 Copyright (c) Steve Scherf et al.
# Submitted via: FreeRIP 2.96 
#
DISCID=d60bc70f
DTITLE=Steven Pearl - Talking Trash
DYEAR=2003
DGENRE=Comedy
TTITLE0=For Anyone
TTITLE1=Pimple On My Colon
TTITLE2=Cigarettes
TTITLE3=Arnold Schwartzenegger
TTITLE4=Energy
TTITLE5=Pot
TTITLE6=Vancouver Skunkweed
TTITLE7=Spock
TTITLE8=Anvil Kicking Contest
TTITLE9=O.J. "Orange Jumpsuit"
TTITLE10=Andy Rooney
TTITLE11=Walter "Dice" Cronkite
TTITLE12=John F. Kennedy
TTITLE13=Afghanistan
TTITLE14=Ted Kennedy Jig
EXTD=
EXTT0=
EXTT1=
EXTT2=
EXTT3=
EXTT4=
EXTT5=
EXTT6=
EXTT7=
EXTT8=
EXTT9=
EXTT10=
EXTT11=
EXTT12=
EXTT13=
EXTT14=
PLAYORDER=
